<mxfile host="Electron" modified="2024-03-08T15:59:05.577Z" agent="Mozilla/5.0 (Macintosh; Intel Mac OS X 10_15_7) AppleWebKit/537.36 (KHTML, like Gecko) draw.io/23.1.5 Chrome/120.0.6099.109 Electron/28.1.0 Safari/537.36" etag="MFFmdf3JfDevbb_uBw5h" version="23.1.5" type="device">
  <diagram name="Page-1" id="h5iBWaYtBdIzpQoZOTI2">
    <mxGraphModel dx="1026" dy="743" grid="1" gridSize="10" guides="1" tooltips="1" connect="1" arrows="1" fold="1" page="1" pageScale="1" pageWidth="827" pageHeight="1169" math="0" shadow="0">
      <root>
        <mxCell id="0" />
        <mxCell id="1" parent="0" />
        <mxCell id="wkDEfTS1j_juvGfnHHMa-12" value="" style="rounded=0;whiteSpace=wrap;html=1;fillColor=#dae8fc;strokeColor=#6c8ebf;verticalAlign=bottom;" parent="1" vertex="1">
          <mxGeometry x="90" y="10" width="740" height="1120" as="geometry" />
        </mxCell>
        <mxCell id="wkDEfTS1j_juvGfnHHMa-36" style="edgeStyle=orthogonalEdgeStyle;rounded=0;orthogonalLoop=1;jettySize=auto;html=1;endArrow=block;endFill=0;" parent="1" source="wkDEfTS1j_juvGfnHHMa-1" edge="1">
          <mxGeometry relative="1" as="geometry">
            <mxPoint x="35" y="670" as="targetPoint" />
          </mxGeometry>
        </mxCell>
        <mxCell id="wkDEfTS1j_juvGfnHHMa-52" style="rounded=0;orthogonalLoop=1;jettySize=auto;html=1;entryX=0;entryY=0.5;entryDx=0;entryDy=0;" parent="1" source="wkDEfTS1j_juvGfnHHMa-1" target="wkDEfTS1j_juvGfnHHMa-19" edge="1">
          <mxGeometry relative="1" as="geometry" />
        </mxCell>
        <mxCell id="wkDEfTS1j_juvGfnHHMa-98" style="rounded=0;orthogonalLoop=1;jettySize=auto;html=1;entryX=0;entryY=0.5;entryDx=0;entryDy=0;" parent="1" source="wkDEfTS1j_juvGfnHHMa-1" target="wkDEfTS1j_juvGfnHHMa-80" edge="1">
          <mxGeometry relative="1" as="geometry" />
        </mxCell>
        <mxCell id="wkDEfTS1j_juvGfnHHMa-99" style="rounded=0;orthogonalLoop=1;jettySize=auto;html=1;entryX=0;entryY=0.5;entryDx=0;entryDy=0;" parent="1" source="wkDEfTS1j_juvGfnHHMa-1" target="wkDEfTS1j_juvGfnHHMa-75" edge="1">
          <mxGeometry relative="1" as="geometry" />
        </mxCell>
        <mxCell id="wkDEfTS1j_juvGfnHHMa-100" style="rounded=0;orthogonalLoop=1;jettySize=auto;html=1;entryX=0;entryY=0.5;entryDx=0;entryDy=0;" parent="1" source="wkDEfTS1j_juvGfnHHMa-1" target="wkDEfTS1j_juvGfnHHMa-74" edge="1">
          <mxGeometry relative="1" as="geometry" />
        </mxCell>
        <mxCell id="dHHyZEyWkRLaGQ7uEb4g-2" style="rounded=0;orthogonalLoop=1;jettySize=auto;html=1;" parent="1" source="wkDEfTS1j_juvGfnHHMa-1" target="dHHyZEyWkRLaGQ7uEb4g-1" edge="1">
          <mxGeometry relative="1" as="geometry" />
        </mxCell>
        <mxCell id="wkDEfTS1j_juvGfnHHMa-1" value="Admin&lt;br&gt;" style="shape=umlActor;verticalLabelPosition=bottom;verticalAlign=top;html=1;outlineConnect=0;fillColor=#FFCC99;" parent="1" vertex="1">
          <mxGeometry x="20" y="920" width="30" height="60" as="geometry" />
        </mxCell>
        <mxCell id="wkDEfTS1j_juvGfnHHMa-37" style="edgeStyle=orthogonalEdgeStyle;rounded=0;orthogonalLoop=1;jettySize=auto;html=1;endArrow=block;endFill=0;" parent="1" source="wkDEfTS1j_juvGfnHHMa-5" edge="1">
          <mxGeometry relative="1" as="geometry">
            <mxPoint x="35" y="240" as="targetPoint" />
          </mxGeometry>
        </mxCell>
        <mxCell id="wkDEfTS1j_juvGfnHHMa-58" style="rounded=0;orthogonalLoop=1;jettySize=auto;html=1;entryX=0;entryY=0.5;entryDx=0;entryDy=0;" parent="1" source="wkDEfTS1j_juvGfnHHMa-5" target="wkDEfTS1j_juvGfnHHMa-31" edge="1">
          <mxGeometry relative="1" as="geometry" />
        </mxCell>
        <mxCell id="wkDEfTS1j_juvGfnHHMa-59" style="rounded=0;orthogonalLoop=1;jettySize=auto;html=1;entryX=0;entryY=0;entryDx=0;entryDy=0;" parent="1" source="wkDEfTS1j_juvGfnHHMa-5" target="wkDEfTS1j_juvGfnHHMa-35" edge="1">
          <mxGeometry relative="1" as="geometry" />
        </mxCell>
        <mxCell id="wkDEfTS1j_juvGfnHHMa-91" style="rounded=0;orthogonalLoop=1;jettySize=auto;html=1;" parent="1" source="wkDEfTS1j_juvGfnHHMa-5" target="wkDEfTS1j_juvGfnHHMa-76" edge="1">
          <mxGeometry relative="1" as="geometry" />
        </mxCell>
        <mxCell id="wkDEfTS1j_juvGfnHHMa-92" style="rounded=0;orthogonalLoop=1;jettySize=auto;html=1;" parent="1" source="wkDEfTS1j_juvGfnHHMa-5" target="wkDEfTS1j_juvGfnHHMa-77" edge="1">
          <mxGeometry relative="1" as="geometry" />
        </mxCell>
        <mxCell id="wkDEfTS1j_juvGfnHHMa-5" value="Employé" style="shape=umlActor;verticalLabelPosition=bottom;verticalAlign=top;html=1;outlineConnect=0;fillColor=#FFCC99;" parent="1" vertex="1">
          <mxGeometry x="20" y="580" width="30" height="60" as="geometry" />
        </mxCell>
        <mxCell id="wkDEfTS1j_juvGfnHHMa-60" style="rounded=0;orthogonalLoop=1;jettySize=auto;html=1;entryX=0;entryY=0.5;entryDx=0;entryDy=0;" parent="1" source="wkDEfTS1j_juvGfnHHMa-6" target="wkDEfTS1j_juvGfnHHMa-30" edge="1">
          <mxGeometry relative="1" as="geometry" />
        </mxCell>
        <mxCell id="wkDEfTS1j_juvGfnHHMa-6" value="Visiteur" style="shape=umlActor;verticalLabelPosition=bottom;verticalAlign=top;html=1;outlineConnect=0;fillColor=#FFCC99;" parent="1" vertex="1">
          <mxGeometry x="20" y="150" width="30" height="60" as="geometry" />
        </mxCell>
        <mxCell id="wkDEfTS1j_juvGfnHHMa-13" value="Site web du garage V.Parrot" style="text;html=1;strokeColor=none;fillColor=none;align=center;verticalAlign=middle;whiteSpace=wrap;rounded=0;fontSize=14;" parent="1" vertex="1">
          <mxGeometry x="352.5" y="10" width="195" height="30" as="geometry" />
        </mxCell>
        <mxCell id="wkDEfTS1j_juvGfnHHMa-14" value="Se connecter à l&#39;interface d&#39;administration" style="ellipse;whiteSpace=wrap;html=1;fillColor=#d5e8d4;strokeColor=#82b366;" parent="1" vertex="1">
          <mxGeometry x="602.5" y="690" width="200" height="70" as="geometry" />
        </mxCell>
        <mxCell id="wkDEfTS1j_juvGfnHHMa-15" value="Ajouter un service" style="ellipse;whiteSpace=wrap;html=1;fillColor=#fff2cc;strokeColor=#d6b656;" parent="1" vertex="1">
          <mxGeometry x="680" y="960" width="140" height="40" as="geometry" />
        </mxCell>
        <mxCell id="wkDEfTS1j_juvGfnHHMa-16" value="Modifier un service" style="ellipse;whiteSpace=wrap;html=1;fillColor=#fff2cc;strokeColor=#d6b656;" parent="1" vertex="1">
          <mxGeometry x="679.9999999999999" y="1010" width="140" height="40" as="geometry" />
        </mxCell>
        <mxCell id="wkDEfTS1j_juvGfnHHMa-17" value="Supprimer un service" style="ellipse;whiteSpace=wrap;html=1;fillColor=#fff2cc;strokeColor=#d6b656;" parent="1" vertex="1">
          <mxGeometry x="679.9999999999999" y="1062.5" width="140" height="40" as="geometry" />
        </mxCell>
        <mxCell id="wkDEfTS1j_juvGfnHHMa-18" value="Consulter les services" style="ellipse;whiteSpace=wrap;html=1;fillColor=#fff2cc;strokeColor=#d6b656;" parent="1" vertex="1">
          <mxGeometry x="310" y="60" width="140" height="50" as="geometry" />
        </mxCell>
        <mxCell id="wkDEfTS1j_juvGfnHHMa-19" value="Modifier les horaires d&#39;ouverture" style="ellipse;whiteSpace=wrap;html=1;fillColor=#fff2cc;strokeColor=#d6b656;" parent="1" vertex="1">
          <mxGeometry x="329" y="985" width="170" height="40" as="geometry" />
        </mxCell>
        <mxCell id="wkDEfTS1j_juvGfnHHMa-20" value="Consulter les véhicules d&#39;occasion" style="ellipse;whiteSpace=wrap;html=1;fillColor=#fff2cc;strokeColor=#d6b656;" parent="1" vertex="1">
          <mxGeometry x="560" y="150" width="160" height="50" as="geometry" />
        </mxCell>
        <mxCell id="wkDEfTS1j_juvGfnHHMa-21" value="Consulter les horaires d&#39;ouverture" style="ellipse;whiteSpace=wrap;html=1;fillColor=#fff2cc;strokeColor=#d6b656;" parent="1" vertex="1">
          <mxGeometry x="450" y="90" width="152.5" height="50" as="geometry" />
        </mxCell>
        <mxCell id="wkDEfTS1j_juvGfnHHMa-22" value="Ajouter un véhicule d&#39;occasion" style="ellipse;whiteSpace=wrap;html=1;fillColor=#fff2cc;strokeColor=#d6b656;" parent="1" vertex="1">
          <mxGeometry x="620" y="390" width="160" height="50" as="geometry" />
        </mxCell>
        <mxCell id="wkDEfTS1j_juvGfnHHMa-23" value="Modifier un véhicule d&#39;occasion" style="ellipse;whiteSpace=wrap;html=1;fillColor=#fff2cc;strokeColor=#d6b656;" parent="1" vertex="1">
          <mxGeometry x="615" y="450" width="160" height="50" as="geometry" />
        </mxCell>
        <mxCell id="wkDEfTS1j_juvGfnHHMa-24" value="Supprimer un véhicule d&#39;occasion" style="ellipse;whiteSpace=wrap;html=1;fillColor=#fff2cc;strokeColor=#d6b656;" parent="1" vertex="1">
          <mxGeometry x="610" y="510" width="165" height="50" as="geometry" />
        </mxCell>
        <mxCell id="wkDEfTS1j_juvGfnHHMa-25" value="Filtrer la liste des véhicules d&#39;occasion" style="ellipse;whiteSpace=wrap;html=1;fillColor=#fff2cc;strokeColor=#d6b656;" parent="1" vertex="1">
          <mxGeometry x="540" y="210" width="200" height="50" as="geometry" />
        </mxCell>
        <mxCell id="wkDEfTS1j_juvGfnHHMa-27" value="Contacter le garage" style="ellipse;whiteSpace=wrap;html=1;fillColor=#fff2cc;strokeColor=#d6b656;" parent="1" vertex="1">
          <mxGeometry x="212.5" y="280" width="140" height="50" as="geometry" />
        </mxCell>
        <mxCell id="wkDEfTS1j_juvGfnHHMa-28" value="Écrire un témoignage clients" style="ellipse;whiteSpace=wrap;html=1;fillColor=#fff2cc;strokeColor=#d6b656;" parent="1" vertex="1">
          <mxGeometry x="350" y="310" width="200" height="50" as="geometry" />
        </mxCell>
        <mxCell id="wkDEfTS1j_juvGfnHHMa-30" value="Consulter le site web" style="ellipse;whiteSpace=wrap;html=1;fillColor=#fff2cc;strokeColor=#d6b656;" parent="1" vertex="1">
          <mxGeometry x="184.37" y="155" width="140" height="50" as="geometry" />
        </mxCell>
        <mxCell id="wkDEfTS1j_juvGfnHHMa-31" value="Modérer les témoignages clients" style="ellipse;whiteSpace=wrap;html=1;fillColor=#fff2cc;strokeColor=#d6b656;" parent="1" vertex="1">
          <mxGeometry x="137" y="640" width="186" height="50" as="geometry" />
        </mxCell>
        <mxCell id="wkDEfTS1j_juvGfnHHMa-33" value="Ajouter une photo à un véhicule d&#39;occasion" style="ellipse;whiteSpace=wrap;html=1;fillColor=#fff2cc;strokeColor=#d6b656;" parent="1" vertex="1">
          <mxGeometry x="323" y="480" width="160" height="50" as="geometry" />
        </mxCell>
        <mxCell id="wkDEfTS1j_juvGfnHHMa-34" value="Supprimer une photo d&#39;un véhicule d&#39;occasion" style="ellipse;whiteSpace=wrap;html=1;fillColor=#fff2cc;strokeColor=#d6b656;" parent="1" vertex="1">
          <mxGeometry x="340" y="542.5" width="170" height="55" as="geometry" />
        </mxCell>
        <mxCell id="wkDEfTS1j_juvGfnHHMa-35" value="Consulter les messages clients" style="ellipse;whiteSpace=wrap;html=1;fillColor=#fff2cc;strokeColor=#d6b656;" parent="1" vertex="1">
          <mxGeometry x="134" y="780" width="160" height="50" as="geometry" />
        </mxCell>
        <mxCell id="wkDEfTS1j_juvGfnHHMa-40" style="edgeStyle=orthogonalEdgeStyle;rounded=0;orthogonalLoop=1;jettySize=auto;html=1;exitX=0.5;exitY=1;exitDx=0;exitDy=0;" parent="1" source="wkDEfTS1j_juvGfnHHMa-25" target="wkDEfTS1j_juvGfnHHMa-25" edge="1">
          <mxGeometry relative="1" as="geometry" />
        </mxCell>
        <mxCell id="wkDEfTS1j_juvGfnHHMa-46" value="Consulter les témoignages clients" style="ellipse;whiteSpace=wrap;html=1;fillColor=#fff2cc;strokeColor=#d6b656;" parent="1" vertex="1">
          <mxGeometry x="501" y="270" width="160" height="50" as="geometry" />
        </mxCell>
        <mxCell id="wkDEfTS1j_juvGfnHHMa-73" value="&amp;lt;&amp;lt;include&amp;gt;&amp;gt;" style="html=1;verticalAlign=bottom;endArrow=open;dashed=1;endSize=8;curved=0;rounded=0;entryX=0;entryY=0.5;entryDx=0;entryDy=0;" parent="1" source="wkDEfTS1j_juvGfnHHMa-77" target="wkDEfTS1j_juvGfnHHMa-14" edge="1">
          <mxGeometry x="0.2394" y="12" relative="1" as="geometry">
            <mxPoint x="512" y="625" as="sourcePoint" />
            <mxPoint x="590" y="725" as="targetPoint" />
            <mxPoint as="offset" />
          </mxGeometry>
        </mxCell>
        <mxCell id="wkDEfTS1j_juvGfnHHMa-74" value="Consulter les informations du garage" style="ellipse;whiteSpace=wrap;html=1;fillColor=#fff2cc;strokeColor=#d6b656;" parent="1" vertex="1">
          <mxGeometry x="252.87" y="830" width="183.13" height="60" as="geometry" />
        </mxCell>
        <mxCell id="wkDEfTS1j_juvGfnHHMa-75" value="Modifier les types de services du garage" style="ellipse;whiteSpace=wrap;html=1;fillColor=#fff2cc;strokeColor=#d6b656;" parent="1" vertex="1">
          <mxGeometry x="282.5" y="910" width="195" height="65" as="geometry" />
        </mxCell>
        <mxCell id="wkDEfTS1j_juvGfnHHMa-76" value="Gérer les véhicules d&#39;occasion" style="ellipse;whiteSpace=wrap;html=1;fillColor=#fff2cc;strokeColor=#d6b656;" parent="1" vertex="1">
          <mxGeometry x="352.5" y="390" width="160" height="50" as="geometry" />
        </mxCell>
        <mxCell id="wkDEfTS1j_juvGfnHHMa-77" value="Gérer les photos des véhicules d&#39;occasion" style="ellipse;whiteSpace=wrap;html=1;fillColor=#fff2cc;strokeColor=#d6b656;" parent="1" vertex="1">
          <mxGeometry x="126.57" y="565" width="160" height="50" as="geometry" />
        </mxCell>
        <mxCell id="wkDEfTS1j_juvGfnHHMa-78" value="Valider un témoignage" style="ellipse;whiteSpace=wrap;html=1;fillColor=#fff2cc;strokeColor=#d6b656;" parent="1" vertex="1">
          <mxGeometry x="310" y="705" width="156" height="40" as="geometry" />
        </mxCell>
        <mxCell id="wkDEfTS1j_juvGfnHHMa-79" value="Refuser un témoignage" style="ellipse;whiteSpace=wrap;html=1;fillColor=#fff2cc;strokeColor=#d6b656;" parent="1" vertex="1">
          <mxGeometry x="150" y="720" width="150" height="40" as="geometry" />
        </mxCell>
        <mxCell id="wkDEfTS1j_juvGfnHHMa-80" value="Gérer les services proposés par le garage" style="ellipse;whiteSpace=wrap;html=1;fillColor=#fff2cc;strokeColor=#d6b656;" parent="1" vertex="1">
          <mxGeometry x="380" y="1037.5" width="210" height="65" as="geometry" />
        </mxCell>
        <mxCell id="wkDEfTS1j_juvGfnHHMa-81" value="" style="endArrow=open;endSize=8;endFill=0;html=1;rounded=0;exitX=0.5;exitY=1;exitDx=0;exitDy=0;dashed=1;" parent="1" source="wkDEfTS1j_juvGfnHHMa-18" target="wkDEfTS1j_juvGfnHHMa-30" edge="1">
          <mxGeometry x="0.3933" y="21" width="160" relative="1" as="geometry">
            <mxPoint x="430" y="220" as="sourcePoint" />
            <mxPoint x="590" y="220" as="targetPoint" />
            <mxPoint as="offset" />
          </mxGeometry>
        </mxCell>
        <mxCell id="KUm6JqZgUA-rJr0b5zgr-2" value="&amp;lt;&amp;lt;Extend&amp;gt;&amp;gt;" style="edgeLabel;html=1;align=center;verticalAlign=middle;resizable=0;points=[];" vertex="1" connectable="0" parent="wkDEfTS1j_juvGfnHHMa-81">
          <mxGeometry x="-0.1433" y="3" relative="1" as="geometry">
            <mxPoint as="offset" />
          </mxGeometry>
        </mxCell>
        <mxCell id="wkDEfTS1j_juvGfnHHMa-104" value="&amp;lt;&amp;lt;include&amp;gt;&amp;gt;" style="html=1;verticalAlign=bottom;endArrow=open;dashed=1;endSize=8;curved=0;rounded=0;exitX=1;exitY=0.5;exitDx=0;exitDy=0;entryX=0;entryY=0.5;entryDx=0;entryDy=0;" parent="1" source="wkDEfTS1j_juvGfnHHMa-31" target="wkDEfTS1j_juvGfnHHMa-14" edge="1">
          <mxGeometry x="-0.1139" y="4" relative="1" as="geometry">
            <mxPoint x="286" y="638" as="sourcePoint" />
            <mxPoint x="580" y="725" as="targetPoint" />
            <mxPoint as="offset" />
          </mxGeometry>
        </mxCell>
        <mxCell id="wkDEfTS1j_juvGfnHHMa-105" value="&amp;lt;&amp;lt;include&amp;gt;&amp;gt;" style="html=1;verticalAlign=bottom;endArrow=open;dashed=1;endSize=8;curved=0;rounded=0;entryX=0;entryY=0.5;entryDx=0;entryDy=0;" parent="1" source="wkDEfTS1j_juvGfnHHMa-76" target="wkDEfTS1j_juvGfnHHMa-14" edge="1">
          <mxGeometry x="0.2394" y="12" relative="1" as="geometry">
            <mxPoint x="286" y="638" as="sourcePoint" />
            <mxPoint x="590" y="735" as="targetPoint" />
            <mxPoint as="offset" />
          </mxGeometry>
        </mxCell>
        <mxCell id="wkDEfTS1j_juvGfnHHMa-107" value="&amp;lt;&amp;lt;include&amp;gt;&amp;gt;" style="html=1;verticalAlign=bottom;endArrow=open;dashed=1;endSize=8;curved=0;rounded=0;entryX=0;entryY=1;entryDx=0;entryDy=0;exitX=1;exitY=0;exitDx=0;exitDy=0;" parent="1" source="wkDEfTS1j_juvGfnHHMa-75" target="wkDEfTS1j_juvGfnHHMa-14" edge="1">
          <mxGeometry x="-0.1139" y="4" relative="1" as="geometry">
            <mxPoint x="336" y="695" as="sourcePoint" />
            <mxPoint x="610" y="750" as="targetPoint" />
            <mxPoint as="offset" />
          </mxGeometry>
        </mxCell>
        <mxCell id="wkDEfTS1j_juvGfnHHMa-108" value="&amp;lt;&amp;lt;include&amp;gt;&amp;gt;" style="html=1;verticalAlign=bottom;endArrow=open;dashed=1;endSize=8;curved=0;rounded=0;entryX=0;entryY=1;entryDx=0;entryDy=0;" parent="1" source="wkDEfTS1j_juvGfnHHMa-80" target="wkDEfTS1j_juvGfnHHMa-14" edge="1">
          <mxGeometry x="-0.1139" y="4" relative="1" as="geometry">
            <mxPoint x="422" y="919" as="sourcePoint" />
            <mxPoint x="645" y="766" as="targetPoint" />
            <mxPoint as="offset" />
          </mxGeometry>
        </mxCell>
        <mxCell id="wkDEfTS1j_juvGfnHHMa-109" value="&amp;lt;&amp;lt;include&amp;gt;&amp;gt;" style="html=1;verticalAlign=bottom;endArrow=open;dashed=1;endSize=8;curved=0;rounded=0;exitX=1;exitY=0.5;exitDx=0;exitDy=0;entryX=0;entryY=1;entryDx=0;entryDy=0;" parent="1" source="wkDEfTS1j_juvGfnHHMa-74" target="wkDEfTS1j_juvGfnHHMa-14" edge="1">
          <mxGeometry x="-0.1139" y="4" relative="1" as="geometry">
            <mxPoint x="379" y="929" as="sourcePoint" />
            <mxPoint x="641" y="766" as="targetPoint" />
            <mxPoint as="offset" />
          </mxGeometry>
        </mxCell>
        <mxCell id="wkDEfTS1j_juvGfnHHMa-110" value="&amp;lt;&amp;lt;include&amp;gt;&amp;gt;" style="html=1;verticalAlign=bottom;endArrow=open;dashed=1;endSize=8;curved=0;rounded=0;exitX=1;exitY=0;exitDx=0;exitDy=0;entryX=0;entryY=1;entryDx=0;entryDy=0;" parent="1" source="wkDEfTS1j_juvGfnHHMa-19" target="wkDEfTS1j_juvGfnHHMa-14" edge="1">
          <mxGeometry x="-0.1139" y="4" relative="1" as="geometry">
            <mxPoint x="389" y="939" as="sourcePoint" />
            <mxPoint x="610" y="750" as="targetPoint" />
            <mxPoint as="offset" />
          </mxGeometry>
        </mxCell>
        <mxCell id="wkDEfTS1j_juvGfnHHMa-112" value="&amp;lt;&amp;lt;include&amp;gt;&amp;gt;" style="html=1;verticalAlign=bottom;endArrow=open;dashed=1;endSize=8;curved=0;rounded=0;entryX=0;entryY=0.5;entryDx=0;entryDy=0;exitX=1;exitY=0.5;exitDx=0;exitDy=0;" parent="1" source="wkDEfTS1j_juvGfnHHMa-35" target="wkDEfTS1j_juvGfnHHMa-14" edge="1">
          <mxGeometry x="-0.1139" y="4" relative="1" as="geometry">
            <mxPoint x="399" y="949" as="sourcePoint" />
            <mxPoint x="661" y="786" as="targetPoint" />
            <mxPoint as="offset" />
          </mxGeometry>
        </mxCell>
        <mxCell id="dHHyZEyWkRLaGQ7uEb4g-1" value="Gérer les comptes pour les employés (Ajout, Modification, Suppression)" style="ellipse;whiteSpace=wrap;html=1;fillColor=#fff2cc;strokeColor=#d6b656;" parent="1" vertex="1">
          <mxGeometry x="126.57" y="1040" width="195" height="70" as="geometry" />
        </mxCell>
        <mxCell id="KUm6JqZgUA-rJr0b5zgr-4" value="" style="endArrow=open;endSize=8;endFill=0;html=1;rounded=0;dashed=1;" edge="1" parent="1" source="wkDEfTS1j_juvGfnHHMa-21" target="wkDEfTS1j_juvGfnHHMa-30">
          <mxGeometry x="0.3933" y="21" width="160" relative="1" as="geometry">
            <mxPoint x="390" y="120" as="sourcePoint" />
            <mxPoint x="302" y="169" as="targetPoint" />
            <mxPoint as="offset" />
          </mxGeometry>
        </mxCell>
        <mxCell id="KUm6JqZgUA-rJr0b5zgr-5" value="&amp;lt;&amp;lt;Extend&amp;gt;&amp;gt;" style="edgeLabel;html=1;align=center;verticalAlign=middle;resizable=0;points=[];" vertex="1" connectable="0" parent="KUm6JqZgUA-rJr0b5zgr-4">
          <mxGeometry x="-0.1433" y="3" relative="1" as="geometry">
            <mxPoint as="offset" />
          </mxGeometry>
        </mxCell>
        <mxCell id="KUm6JqZgUA-rJr0b5zgr-6" value="" style="endArrow=open;endSize=8;endFill=0;html=1;rounded=0;dashed=1;" edge="1" parent="1" source="wkDEfTS1j_juvGfnHHMa-20" target="wkDEfTS1j_juvGfnHHMa-30">
          <mxGeometry x="0.3933" y="21" width="160" relative="1" as="geometry">
            <mxPoint x="400" y="130" as="sourcePoint" />
            <mxPoint x="312" y="179" as="targetPoint" />
            <mxPoint as="offset" />
          </mxGeometry>
        </mxCell>
        <mxCell id="KUm6JqZgUA-rJr0b5zgr-7" value="&amp;lt;&amp;lt;Extend&amp;gt;&amp;gt;" style="edgeLabel;html=1;align=center;verticalAlign=middle;resizable=0;points=[];" vertex="1" connectable="0" parent="KUm6JqZgUA-rJr0b5zgr-6">
          <mxGeometry x="-0.1433" y="3" relative="1" as="geometry">
            <mxPoint as="offset" />
          </mxGeometry>
        </mxCell>
        <mxCell id="KUm6JqZgUA-rJr0b5zgr-8" value="" style="endArrow=open;endSize=8;endFill=0;html=1;rounded=0;dashed=1;" edge="1" parent="1" source="wkDEfTS1j_juvGfnHHMa-25" target="wkDEfTS1j_juvGfnHHMa-30">
          <mxGeometry x="0.3933" y="21" width="160" relative="1" as="geometry">
            <mxPoint x="410" y="140" as="sourcePoint" />
            <mxPoint x="322" y="189" as="targetPoint" />
            <mxPoint as="offset" />
          </mxGeometry>
        </mxCell>
        <mxCell id="KUm6JqZgUA-rJr0b5zgr-9" value="&amp;lt;&amp;lt;Extend&amp;gt;&amp;gt;" style="edgeLabel;html=1;align=center;verticalAlign=middle;resizable=0;points=[];" vertex="1" connectable="0" parent="KUm6JqZgUA-rJr0b5zgr-8">
          <mxGeometry x="-0.1433" y="3" relative="1" as="geometry">
            <mxPoint as="offset" />
          </mxGeometry>
        </mxCell>
        <mxCell id="KUm6JqZgUA-rJr0b5zgr-10" value="" style="endArrow=open;endSize=8;endFill=0;html=1;rounded=0;exitX=0;exitY=0;exitDx=0;exitDy=0;dashed=1;" edge="1" parent="1" source="wkDEfTS1j_juvGfnHHMa-46" target="wkDEfTS1j_juvGfnHHMa-30">
          <mxGeometry x="0.3933" y="21" width="160" relative="1" as="geometry">
            <mxPoint x="420" y="150" as="sourcePoint" />
            <mxPoint x="332" y="199" as="targetPoint" />
            <mxPoint as="offset" />
          </mxGeometry>
        </mxCell>
        <mxCell id="KUm6JqZgUA-rJr0b5zgr-11" value="&amp;lt;&amp;lt;Extend&amp;gt;&amp;gt;" style="edgeLabel;html=1;align=center;verticalAlign=middle;resizable=0;points=[];" vertex="1" connectable="0" parent="KUm6JqZgUA-rJr0b5zgr-10">
          <mxGeometry x="-0.1433" y="3" relative="1" as="geometry">
            <mxPoint as="offset" />
          </mxGeometry>
        </mxCell>
        <mxCell id="KUm6JqZgUA-rJr0b5zgr-12" value="" style="endArrow=open;endSize=8;endFill=0;html=1;rounded=0;dashed=1;" edge="1" parent="1" source="wkDEfTS1j_juvGfnHHMa-28" target="wkDEfTS1j_juvGfnHHMa-30">
          <mxGeometry x="0.3933" y="21" width="160" relative="1" as="geometry">
            <mxPoint x="430" y="160" as="sourcePoint" />
            <mxPoint x="342" y="209" as="targetPoint" />
            <mxPoint as="offset" />
          </mxGeometry>
        </mxCell>
        <mxCell id="KUm6JqZgUA-rJr0b5zgr-13" value="&amp;lt;&amp;lt;Extend&amp;gt;&amp;gt;" style="edgeLabel;html=1;align=center;verticalAlign=middle;resizable=0;points=[];" vertex="1" connectable="0" parent="KUm6JqZgUA-rJr0b5zgr-12">
          <mxGeometry x="-0.1433" y="3" relative="1" as="geometry">
            <mxPoint as="offset" />
          </mxGeometry>
        </mxCell>
        <mxCell id="KUm6JqZgUA-rJr0b5zgr-14" value="" style="endArrow=open;endSize=8;endFill=0;html=1;rounded=0;dashed=1;" edge="1" parent="1" source="wkDEfTS1j_juvGfnHHMa-27" target="wkDEfTS1j_juvGfnHHMa-30">
          <mxGeometry x="0.3933" y="21" width="160" relative="1" as="geometry">
            <mxPoint x="440" y="170" as="sourcePoint" />
            <mxPoint x="352" y="219" as="targetPoint" />
            <mxPoint as="offset" />
          </mxGeometry>
        </mxCell>
        <mxCell id="KUm6JqZgUA-rJr0b5zgr-15" value="&amp;lt;&amp;lt;Extend&amp;gt;&amp;gt;" style="edgeLabel;html=1;align=center;verticalAlign=middle;resizable=0;points=[];" vertex="1" connectable="0" parent="KUm6JqZgUA-rJr0b5zgr-14">
          <mxGeometry x="-0.1433" y="3" relative="1" as="geometry">
            <mxPoint as="offset" />
          </mxGeometry>
        </mxCell>
        <mxCell id="KUm6JqZgUA-rJr0b5zgr-16" value="" style="endArrow=open;endSize=8;endFill=0;html=1;rounded=0;dashed=1;" edge="1" parent="1" source="wkDEfTS1j_juvGfnHHMa-22" target="wkDEfTS1j_juvGfnHHMa-76">
          <mxGeometry x="0.3933" y="21" width="160" relative="1" as="geometry">
            <mxPoint x="648" y="341" as="sourcePoint" />
            <mxPoint x="560" y="390" as="targetPoint" />
            <mxPoint as="offset" />
          </mxGeometry>
        </mxCell>
        <mxCell id="KUm6JqZgUA-rJr0b5zgr-17" value="&amp;lt;&amp;lt;Extend&amp;gt;&amp;gt;" style="edgeLabel;html=1;align=center;verticalAlign=middle;resizable=0;points=[];" vertex="1" connectable="0" parent="KUm6JqZgUA-rJr0b5zgr-16">
          <mxGeometry x="-0.1433" y="3" relative="1" as="geometry">
            <mxPoint as="offset" />
          </mxGeometry>
        </mxCell>
        <mxCell id="KUm6JqZgUA-rJr0b5zgr-20" value="" style="endArrow=open;endSize=8;endFill=0;html=1;rounded=0;dashed=1;" edge="1" parent="1" source="wkDEfTS1j_juvGfnHHMa-23" target="wkDEfTS1j_juvGfnHHMa-76">
          <mxGeometry x="0.3933" y="21" width="160" relative="1" as="geometry">
            <mxPoint x="470" y="200" as="sourcePoint" />
            <mxPoint x="382" y="249" as="targetPoint" />
            <mxPoint as="offset" />
          </mxGeometry>
        </mxCell>
        <mxCell id="KUm6JqZgUA-rJr0b5zgr-21" value="&amp;lt;&amp;lt;Extend&amp;gt;&amp;gt;" style="edgeLabel;html=1;align=center;verticalAlign=middle;resizable=0;points=[];" vertex="1" connectable="0" parent="KUm6JqZgUA-rJr0b5zgr-20">
          <mxGeometry x="-0.1433" y="3" relative="1" as="geometry">
            <mxPoint as="offset" />
          </mxGeometry>
        </mxCell>
        <mxCell id="KUm6JqZgUA-rJr0b5zgr-22" value="" style="endArrow=open;endSize=8;endFill=0;html=1;rounded=0;dashed=1;" edge="1" parent="1" source="wkDEfTS1j_juvGfnHHMa-24" target="wkDEfTS1j_juvGfnHHMa-76">
          <mxGeometry x="0.3933" y="21" width="160" relative="1" as="geometry">
            <mxPoint x="480" y="210" as="sourcePoint" />
            <mxPoint x="392" y="259" as="targetPoint" />
            <mxPoint as="offset" />
          </mxGeometry>
        </mxCell>
        <mxCell id="KUm6JqZgUA-rJr0b5zgr-23" value="&amp;lt;&amp;lt;Extend&amp;gt;&amp;gt;" style="edgeLabel;html=1;align=center;verticalAlign=middle;resizable=0;points=[];" vertex="1" connectable="0" parent="KUm6JqZgUA-rJr0b5zgr-22">
          <mxGeometry x="-0.1433" y="3" relative="1" as="geometry">
            <mxPoint as="offset" />
          </mxGeometry>
        </mxCell>
        <mxCell id="KUm6JqZgUA-rJr0b5zgr-24" value="" style="endArrow=open;endSize=8;endFill=0;html=1;rounded=0;dashed=1;" edge="1" parent="1" source="wkDEfTS1j_juvGfnHHMa-33" target="wkDEfTS1j_juvGfnHHMa-77">
          <mxGeometry x="0.3933" y="21" width="160" relative="1" as="geometry">
            <mxPoint x="329" y="501" as="sourcePoint" />
            <mxPoint x="241" y="550" as="targetPoint" />
            <mxPoint as="offset" />
          </mxGeometry>
        </mxCell>
        <mxCell id="KUm6JqZgUA-rJr0b5zgr-25" value="&amp;lt;&amp;lt;Extend&amp;gt;&amp;gt;" style="edgeLabel;html=1;align=center;verticalAlign=middle;resizable=0;points=[];" vertex="1" connectable="0" parent="KUm6JqZgUA-rJr0b5zgr-24">
          <mxGeometry x="-0.1433" y="3" relative="1" as="geometry">
            <mxPoint as="offset" />
          </mxGeometry>
        </mxCell>
        <mxCell id="KUm6JqZgUA-rJr0b5zgr-26" value="" style="endArrow=open;endSize=8;endFill=0;html=1;rounded=0;dashed=1;" edge="1" parent="1" source="wkDEfTS1j_juvGfnHHMa-34" target="wkDEfTS1j_juvGfnHHMa-77">
          <mxGeometry x="0.3933" y="21" width="160" relative="1" as="geometry">
            <mxPoint x="358" y="554" as="sourcePoint" />
            <mxPoint x="293" y="576" as="targetPoint" />
            <mxPoint as="offset" />
          </mxGeometry>
        </mxCell>
        <mxCell id="KUm6JqZgUA-rJr0b5zgr-27" value="&amp;lt;&amp;lt;Extend&amp;gt;&amp;gt;" style="edgeLabel;html=1;align=center;verticalAlign=middle;resizable=0;points=[];" vertex="1" connectable="0" parent="KUm6JqZgUA-rJr0b5zgr-26">
          <mxGeometry x="-0.1433" y="3" relative="1" as="geometry">
            <mxPoint x="-5" y="11" as="offset" />
          </mxGeometry>
        </mxCell>
        <mxCell id="KUm6JqZgUA-rJr0b5zgr-29" value="" style="endArrow=open;endSize=8;endFill=0;html=1;rounded=0;dashed=1;" edge="1" parent="1" source="wkDEfTS1j_juvGfnHHMa-78" target="wkDEfTS1j_juvGfnHHMa-31">
          <mxGeometry x="0.3933" y="21" width="160" relative="1" as="geometry">
            <mxPoint x="368" y="564" as="sourcePoint" />
            <mxPoint x="303" y="586" as="targetPoint" />
            <mxPoint as="offset" />
          </mxGeometry>
        </mxCell>
        <mxCell id="KUm6JqZgUA-rJr0b5zgr-30" value="&amp;lt;&amp;lt;Extend&amp;gt;&amp;gt;" style="edgeLabel;html=1;align=center;verticalAlign=middle;resizable=0;points=[];" vertex="1" connectable="0" parent="KUm6JqZgUA-rJr0b5zgr-29">
          <mxGeometry x="-0.1433" y="3" relative="1" as="geometry">
            <mxPoint x="-23" y="4" as="offset" />
          </mxGeometry>
        </mxCell>
        <mxCell id="KUm6JqZgUA-rJr0b5zgr-31" value="" style="endArrow=open;endSize=8;endFill=0;html=1;rounded=0;dashed=1;" edge="1" parent="1" source="wkDEfTS1j_juvGfnHHMa-79" target="wkDEfTS1j_juvGfnHHMa-31">
          <mxGeometry x="0.3933" y="21" width="160" relative="1" as="geometry">
            <mxPoint x="378" y="574" as="sourcePoint" />
            <mxPoint x="313" y="596" as="targetPoint" />
            <mxPoint as="offset" />
          </mxGeometry>
        </mxCell>
        <mxCell id="KUm6JqZgUA-rJr0b5zgr-32" value="&amp;lt;&amp;lt;Extend&amp;gt;&amp;gt;" style="edgeLabel;html=1;align=center;verticalAlign=middle;resizable=0;points=[];" vertex="1" connectable="0" parent="KUm6JqZgUA-rJr0b5zgr-31">
          <mxGeometry x="-0.1433" y="3" relative="1" as="geometry">
            <mxPoint x="-34" y="-2" as="offset" />
          </mxGeometry>
        </mxCell>
        <mxCell id="KUm6JqZgUA-rJr0b5zgr-33" value="" style="endArrow=open;endSize=8;endFill=0;html=1;rounded=0;dashed=1;" edge="1" parent="1" source="wkDEfTS1j_juvGfnHHMa-15" target="wkDEfTS1j_juvGfnHHMa-80">
          <mxGeometry x="0.3933" y="21" width="160" relative="1" as="geometry">
            <mxPoint x="388" y="584" as="sourcePoint" />
            <mxPoint x="323" y="606" as="targetPoint" />
            <mxPoint as="offset" />
          </mxGeometry>
        </mxCell>
        <mxCell id="KUm6JqZgUA-rJr0b5zgr-34" value="&amp;lt;&amp;lt;Extend&amp;gt;&amp;gt;" style="edgeLabel;html=1;align=center;verticalAlign=middle;resizable=0;points=[];" vertex="1" connectable="0" parent="KUm6JqZgUA-rJr0b5zgr-33">
          <mxGeometry x="-0.1433" y="3" relative="1" as="geometry">
            <mxPoint as="offset" />
          </mxGeometry>
        </mxCell>
        <mxCell id="KUm6JqZgUA-rJr0b5zgr-35" value="" style="endArrow=open;endSize=8;endFill=0;html=1;rounded=0;dashed=1;" edge="1" parent="1" source="wkDEfTS1j_juvGfnHHMa-16" target="wkDEfTS1j_juvGfnHHMa-80">
          <mxGeometry x="0.3933" y="21" width="160" relative="1" as="geometry">
            <mxPoint x="675" y="1006" as="sourcePoint" />
            <mxPoint x="558" y="1054" as="targetPoint" />
            <mxPoint as="offset" />
          </mxGeometry>
        </mxCell>
        <mxCell id="KUm6JqZgUA-rJr0b5zgr-36" value="&amp;lt;&amp;lt;Extend&amp;gt;&amp;gt;" style="edgeLabel;html=1;align=center;verticalAlign=middle;resizable=0;points=[];" vertex="1" connectable="0" parent="KUm6JqZgUA-rJr0b5zgr-35">
          <mxGeometry x="-0.1433" y="3" relative="1" as="geometry">
            <mxPoint as="offset" />
          </mxGeometry>
        </mxCell>
        <mxCell id="KUm6JqZgUA-rJr0b5zgr-37" value="" style="endArrow=open;endSize=8;endFill=0;html=1;rounded=0;dashed=1;" edge="1" parent="1" source="wkDEfTS1j_juvGfnHHMa-17" target="wkDEfTS1j_juvGfnHHMa-80">
          <mxGeometry x="0.3933" y="21" width="160" relative="1" as="geometry">
            <mxPoint x="685" y="1016" as="sourcePoint" />
            <mxPoint x="568" y="1064" as="targetPoint" />
            <mxPoint as="offset" />
          </mxGeometry>
        </mxCell>
        <mxCell id="KUm6JqZgUA-rJr0b5zgr-38" value="&amp;lt;&amp;lt;Extend&amp;gt;&amp;gt;" style="edgeLabel;html=1;align=center;verticalAlign=middle;resizable=0;points=[];" vertex="1" connectable="0" parent="KUm6JqZgUA-rJr0b5zgr-37">
          <mxGeometry x="-0.1433" y="3" relative="1" as="geometry">
            <mxPoint x="-2" y="2" as="offset" />
          </mxGeometry>
        </mxCell>
      </root>
    </mxGraphModel>
  </diagram>
</mxfile>
